<?xml version="1.0" encoding="UTF-8"?>
<svg xmlns="http://www.w3.org/2000/svg" xmlns:xlink="http://www.w3.org/1999/xlink" viewBox="0 0 64 64" width="64px" height="64px">
<g id="surface1642393">
<path style=" stroke:none;fill-rule:nonzero;fill:rgb(100%,100%,100%);fill-opacity:1;" d="M 19.09375 4 C 10.78125 4 4 10.78125 4 19.09375 L 4 40.921875 C 4 49.21875 10.78125 56 19.09375 56 L 40.921875 56 C 49.21875 56 56 49.21875 56 40.90625 L 56 19.09375 C 56 10.78125 49.21875 4 40.90625 4 Z M 19.09375 8 L 40.90625 8 C 47.0625 8 52 12.9375 52 19.09375 L 52 40.90625 C 52 47.0625 47.0625 52 40.921875 52 L 19.09375 52 C 12.9375 52 8 47.0625 8 40.921875 L 8 19.09375 C 8 12.9375 12.9375 8 19.09375 8 Z M 46 12 C 44.890625 12 44 12.890625 44 14 C 44 15.109375 44.890625 16 46 16 C 47.109375 16 48 15.109375 48 14 C 48 12.890625 47.109375 12 46 12 Z M 30 16 C 22.296875 16 16 22.296875 16 30 C 16 37.703125 22.296875 44 30 44 C 37.703125 44 44 37.703125 44 30 C 44 22.296875 37.703125 16 30 16 Z M 30 20 C 35.546875 20 40 24.453125 40 30 C 40 35.546875 35.546875 40 30 40 C 24.453125 40 20 35.546875 20 30 C 20 24.453125 24.453125 20 30 20 Z M 30 20 "/>
</g>
</svg>
