<?xml version="1.0" encoding="UTF-8"?>
<svg xmlns="http://www.w3.org/2000/svg" xmlns:xlink="http://www.w3.org/1999/xlink" viewBox="0 0 64 64" width="64px" height="64px">
<g id="surface1644847">
<path style=" stroke:none;fill-rule:nonzero;fill:rgb(100%,100%,100%);fill-opacity:1;" d="M 30 4 C 15.664062 4 4 15.664062 4 30 C 4 44.335938 15.664062 56 30 56 C 44.335938 56 56 44.335938 56 30 C 56 15.664062 44.335938 4 30 4 Z M 30 8 C 42.175781 8 52 17.824219 52 30 C 52 41.066406 43.871094 50.164062 33.25 51.734375 L 33.25 36.359375 L 39.460938 36.359375 L 40.4375 30.054688 L 33.25 30.054688 L 33.25 26.601562 C 33.25 23.980469 34.101562 21.65625 36.554688 21.65625 L 40.492188 21.65625 L 40.492188 16.148438 C 39.800781 16.054688 38.339844 15.851562 35.570312 15.851562 C 29.792969 15.851562 26.40625 18.902344 26.40625 25.851562 L 26.40625 30.046875 L 20.46875 30.046875 L 20.46875 36.359375 L 26.414062 36.359375 L 26.414062 51.679688 C 15.960938 49.96875 8 40.949219 8 30 C 8 17.824219 17.824219 8 30 8 Z M 30 8 "/>
</g>
</svg>
