<?xml version="1.0" encoding="UTF-8"?>
<svg xmlns="http://www.w3.org/2000/svg" xmlns:xlink="http://www.w3.org/1999/xlink" viewBox="0 0 64 64" width="64px" height="64px">
<g id="surface1646282">
<path style=" stroke:none;fill-rule:nonzero;fill:rgb(100%,100%,100%);fill-opacity:1;" d="M 60 13.1875 C 57.90625 14.09375 55.796875 14.765625 53.46875 14.984375 C 55.796875 13.640625 57.671875 11.375 58.59375 8.90625 C 56.265625 10.25 53.9375 11.15625 51.375 11.609375 C 49.03125 9.359375 46 8 42.734375 8 C 36.4375 8 31.296875 12.96875 31.296875 19.0625 C 31.296875 19.953125 31.296875 20.859375 31.53125 21.546875 C 19.5 21.546875 11.25 14.765625 5.65625 8 C 4.484375 9.578125 4.015625 11.609375 4.015625 13.640625 C 4.015625 17.46875 6.125 20.859375 9.15625 22.890625 C 7.28125 22.671875 5.421875 22.21875 4.015625 21.546875 C 4.015625 21.546875 4.015625 21.546875 4.015625 21.765625 C 4.015625 27.1875 7.984375 31.6875 13.125 32.59375 C 12.1875 32.8125 11.25 33.046875 10.078125 33.046875 C 9.390625 33.046875 8.6875 33.046875 7.984375 32.828125 C 9.390625 37.34375 15.90625 42.53125 21.03125 42.53125 C 17.0625 45.453125 13.375 48 6 48 C 5.0625 48 5.8125 48 4 48 C 9.125 51.15625 15.203125 52 21.5 52 C 42.734375 52 54.171875 35.078125 54.171875 20.40625 C 54.171875 19.953125 54.171875 19.515625 54.171875 19.0625 C 56.5 17.46875 58.375 15.453125 60 13.1875 "/>
</g>
</svg>
