<?xml version="1.0" encoding="UTF-8"?>
<svg xmlns="http://www.w3.org/2000/svg" xmlns:xlink="http://www.w3.org/1999/xlink" viewBox="0 0 64 64" width="64px" height="64px">
<g id="surface1638717">
<path style=" stroke:none;fill-rule:nonzero;fill:rgb(100%,100%,100%);fill-opacity:1;" d="M 32 8 C 23.84375 8 16.625 8.84375 12.234375 9.5 C 8.640625 10.03125 5.78125 12.84375 5.125 16.453125 C 4.5625 19.609375 4 24.21875 4 30 C 4 35.78125 4.5625 40.390625 5.125 43.546875 C 5.78125 47.15625 8.640625 49.953125 12.234375 50.5 C 16.640625 51.15625 23.890625 52 32 52 C 40.109375 52 47.34375 51.15625 51.75 50.5 L 51.765625 50.5 C 55.359375 49.96875 58.21875 47.15625 58.875 43.546875 C 59.4375 40.375 60 35.765625 60 30 C 60 24.21875 59.4375 19.609375 58.859375 16.453125 C 58.21875 12.84375 55.359375 10.03125 51.765625 9.5 C 47.375 8.84375 40.15625 8 32 8 Z M 32 12 C 39.875 12 46.921875 12.8125 51.171875 13.453125 C 53.046875 13.734375 54.5625 15.203125 54.921875 17.15625 C 55.453125 20.109375 56 24.484375 56 30 C 56 35.515625 55.453125 39.890625 54.9375 42.828125 C 54.578125 44.796875 53.0625 46.265625 51.171875 46.546875 C 46.890625 47.171875 39.828125 48 32 48 C 24.171875 48 17.09375 47.171875 12.828125 46.546875 C 10.953125 46.265625 9.421875 44.796875 9.0625 42.828125 C 8.546875 39.875 8 35.515625 8 30 C 8 24.46875 8.546875 20.109375 9.0625 17.15625 C 9.421875 15.203125 10.9375 13.734375 12.8125 13.46875 L 12.828125 13.46875 C 17.078125 12.828125 24.125 12 32 12 Z M 24 20 L 24 40 L 44 30 Z M 24 20 "/>
</g>
</svg>
